<mxfile host="app.diagrams.net" modified="2024-02-27T18:53:54.063Z" agent="Mozilla/5.0 (Windows NT 10.0; Win64; x64) AppleWebKit/537.36 (KHTML, like Gecko) Chrome/122.0.0.0 Safari/537.36" etag="_7qUSGpvqkBUOkN17HJG" version="23.1.7" type="device">
  <diagram name="PÃ¡gina-1" id="AyTeczKupvt1TUQwGS7e">
    <mxGraphModel dx="2577" dy="942" grid="1" gridSize="10" guides="1" tooltips="1" connect="1" arrows="1" fold="1" page="1" pageScale="1" pageWidth="827" pageHeight="1169" math="0" shadow="0">
      <root>
        <mxCell id="0" />
        <mxCell id="1" parent="0" />
        <mxCell id="VMQfCXlC5Lxj0V1GjXta-3" style="edgeStyle=orthogonalEdgeStyle;rounded=0;orthogonalLoop=1;jettySize=auto;html=1;exitX=1;exitY=0.7;exitDx=0;exitDy=0;exitPerimeter=0;" edge="1" parent="1" source="VMQfCXlC5Lxj0V1GjXta-1" target="VMQfCXlC5Lxj0V1GjXta-2">
          <mxGeometry relative="1" as="geometry">
            <mxPoint x="460" y="250" as="targetPoint" />
          </mxGeometry>
        </mxCell>
        <mxCell id="VMQfCXlC5Lxj0V1GjXta-1" value="" style="outlineConnect=0;dashed=0;verticalLabelPosition=bottom;verticalAlign=top;align=center;html=1;shape=mxgraph.aws3.internet_3;fillColor=#D2D3D3;gradientColor=none;" vertex="1" parent="1">
          <mxGeometry x="130" y="130" width="79.5" height="54" as="geometry" />
        </mxCell>
        <mxCell id="VMQfCXlC5Lxj0V1GjXta-60" style="edgeStyle=orthogonalEdgeStyle;rounded=0;orthogonalLoop=1;jettySize=auto;html=1;" edge="1" parent="1" source="VMQfCXlC5Lxj0V1GjXta-2" target="VMQfCXlC5Lxj0V1GjXta-8">
          <mxGeometry relative="1" as="geometry" />
        </mxCell>
        <mxCell id="VMQfCXlC5Lxj0V1GjXta-2" value="" style="sketch=0;pointerEvents=1;shadow=0;dashed=0;html=1;strokeColor=none;fillColor=#505050;labelPosition=center;verticalLabelPosition=bottom;verticalAlign=top;outlineConnect=0;align=center;shape=mxgraph.office.devices.modem;fontSize=14;" vertex="1" parent="1">
          <mxGeometry x="467.6" y="160" width="70" height="50" as="geometry" />
        </mxCell>
        <mxCell id="VMQfCXlC5Lxj0V1GjXta-110" style="edgeStyle=orthogonalEdgeStyle;rounded=0;orthogonalLoop=1;jettySize=auto;html=1;exitX=0;exitY=0.75;exitDx=0;exitDy=0;entryX=0.5;entryY=0;entryDx=0;entryDy=0;" edge="1" parent="1" source="VMQfCXlC5Lxj0V1GjXta-8" target="VMQfCXlC5Lxj0V1GjXta-70">
          <mxGeometry relative="1" as="geometry" />
        </mxCell>
        <mxCell id="VMQfCXlC5Lxj0V1GjXta-8" value="" style="image;html=1;image=img/lib/clip_art/computers/Server_Tower_128x128.png" vertex="1" parent="1">
          <mxGeometry x="682.4" y="170" width="80" height="80" as="geometry" />
        </mxCell>
        <mxCell id="VMQfCXlC5Lxj0V1GjXta-19" style="edgeStyle=orthogonalEdgeStyle;rounded=0;orthogonalLoop=1;jettySize=auto;html=1;exitX=0.25;exitY=0;exitDx=0;exitDy=0;" edge="1" parent="1" source="VMQfCXlC5Lxj0V1GjXta-70" target="VMQfCXlC5Lxj0V1GjXta-69">
          <mxGeometry relative="1" as="geometry">
            <mxPoint x="370" y="300" as="sourcePoint" />
            <mxPoint x="142.40000000000032" y="290" as="targetPoint" />
          </mxGeometry>
        </mxCell>
        <mxCell id="VMQfCXlC5Lxj0V1GjXta-62" style="edgeStyle=orthogonalEdgeStyle;rounded=0;orthogonalLoop=1;jettySize=auto;html=1;exitX=1;exitY=0.25;exitDx=0;exitDy=0;" edge="1" parent="1">
          <mxGeometry relative="1" as="geometry">
            <mxPoint x="530" y="330" as="targetPoint" />
            <mxPoint x="430" y="320" as="sourcePoint" />
          </mxGeometry>
        </mxCell>
        <mxCell id="VMQfCXlC5Lxj0V1GjXta-65" style="edgeStyle=orthogonalEdgeStyle;rounded=0;orthogonalLoop=1;jettySize=auto;html=1;exitX=0;exitY=0.5;exitDx=0;exitDy=0;entryX=1;entryY=0.5;entryDx=0;entryDy=0;" edge="1" parent="1">
          <mxGeometry relative="1" as="geometry">
            <mxPoint x="350" y="340" as="sourcePoint" />
            <mxPoint x="210" y="380" as="targetPoint" />
          </mxGeometry>
        </mxCell>
        <mxCell id="VMQfCXlC5Lxj0V1GjXta-66" style="edgeStyle=orthogonalEdgeStyle;rounded=0;orthogonalLoop=1;jettySize=auto;html=1;exitX=0;exitY=1;exitDx=0;exitDy=0;entryX=0.5;entryY=1;entryDx=0;entryDy=0;" edge="1" parent="1">
          <mxGeometry relative="1" as="geometry">
            <mxPoint x="350" y="380" as="sourcePoint" />
            <mxPoint x="70" y="420" as="targetPoint" />
          </mxGeometry>
        </mxCell>
        <mxCell id="VMQfCXlC5Lxj0V1GjXta-22" value="" style="image;points=[];aspect=fixed;html=1;align=center;shadow=0;dashed=0;image=img/lib/allied_telesis/computer_and_terminals/Personal_Computer_with_Server.svg;" vertex="1" parent="1">
          <mxGeometry x="660" y="300" width="62.400000000000006" height="62.400000000000006" as="geometry" />
        </mxCell>
        <mxCell id="VMQfCXlC5Lxj0V1GjXta-24" value="" style="image;points=[];aspect=fixed;html=1;align=center;shadow=0;dashed=0;image=img/lib/allied_telesis/computer_and_terminals/Personal_Computer_with_Server.svg;" vertex="1" parent="1">
          <mxGeometry x="537.6" y="300" width="62.400000000000006" height="62.400000000000006" as="geometry" />
        </mxCell>
        <mxCell id="VMQfCXlC5Lxj0V1GjXta-25" value="" style="image;points=[];aspect=fixed;html=1;align=center;shadow=0;dashed=0;image=img/lib/allied_telesis/computer_and_terminals/Personal_Computer_with_Server.svg;" vertex="1" parent="1">
          <mxGeometry x="670" y="390" width="62.400000000000006" height="62.400000000000006" as="geometry" />
        </mxCell>
        <mxCell id="VMQfCXlC5Lxj0V1GjXta-26" value="" style="image;points=[];aspect=fixed;html=1;align=center;shadow=0;dashed=0;image=img/lib/allied_telesis/computer_and_terminals/Personal_Computer_with_Server.svg;" vertex="1" parent="1">
          <mxGeometry x="580" y="380" width="62.400000000000006" height="62.400000000000006" as="geometry" />
        </mxCell>
        <mxCell id="VMQfCXlC5Lxj0V1GjXta-44" value="" style="image;points=[];aspect=fixed;html=1;align=center;shadow=0;dashed=0;image=img/lib/allied_telesis/computer_and_terminals/Personal_Computer_with_Server.svg;" vertex="1" parent="1">
          <mxGeometry x="550" y="870" width="62.4" height="62.4" as="geometry" />
        </mxCell>
        <mxCell id="VMQfCXlC5Lxj0V1GjXta-46" value="" style="image;points=[];aspect=fixed;html=1;align=center;shadow=0;dashed=0;image=img/lib/allied_telesis/computer_and_terminals/Personal_Computer_with_Server.svg;" vertex="1" parent="1">
          <mxGeometry x="642.4" y="870" width="62.400000000000006" height="62.400000000000006" as="geometry" />
        </mxCell>
        <mxCell id="VMQfCXlC5Lxj0V1GjXta-47" value="" style="image;points=[];aspect=fixed;html=1;align=center;shadow=0;dashed=0;image=img/lib/allied_telesis/computer_and_terminals/Personal_Computer_with_Server.svg;" vertex="1" parent="1">
          <mxGeometry x="750" y="870" width="62.400000000000006" height="62.400000000000006" as="geometry" />
        </mxCell>
        <mxCell id="VMQfCXlC5Lxj0V1GjXta-56" value="" style="image;points=[];aspect=fixed;html=1;align=center;shadow=0;dashed=0;image=img/lib/allied_telesis/computer_and_terminals/Personal_Computer_with_Server.svg;" vertex="1" parent="1">
          <mxGeometry x="860" y="870" width="62.400000000000006" height="62.400000000000006" as="geometry" />
        </mxCell>
        <mxCell id="VMQfCXlC5Lxj0V1GjXta-59" style="edgeStyle=orthogonalEdgeStyle;rounded=0;orthogonalLoop=1;jettySize=auto;html=1;exitX=0.5;exitY=1;exitDx=0;exitDy=0;exitPerimeter=0;" edge="1" parent="1" source="VMQfCXlC5Lxj0V1GjXta-1" target="VMQfCXlC5Lxj0V1GjXta-1">
          <mxGeometry relative="1" as="geometry" />
        </mxCell>
        <mxCell id="VMQfCXlC5Lxj0V1GjXta-61" style="edgeStyle=orthogonalEdgeStyle;rounded=0;orthogonalLoop=1;jettySize=auto;html=1;exitX=1;exitY=0;exitDx=0;exitDy=0;entryX=0.701;entryY=-0.006;entryDx=0;entryDy=0;entryPerimeter=0;" edge="1" parent="1" target="VMQfCXlC5Lxj0V1GjXta-22">
          <mxGeometry relative="1" as="geometry">
            <mxPoint x="430" y="300" as="sourcePoint" />
          </mxGeometry>
        </mxCell>
        <mxCell id="VMQfCXlC5Lxj0V1GjXta-63" style="edgeStyle=orthogonalEdgeStyle;rounded=0;orthogonalLoop=1;jettySize=auto;html=1;exitX=1;exitY=0.75;exitDx=0;exitDy=0;entryX=-0.068;entryY=0.704;entryDx=0;entryDy=0;entryPerimeter=0;" edge="1" parent="1" target="VMQfCXlC5Lxj0V1GjXta-26">
          <mxGeometry relative="1" as="geometry">
            <mxPoint x="430" y="360" as="sourcePoint" />
          </mxGeometry>
        </mxCell>
        <mxCell id="VMQfCXlC5Lxj0V1GjXta-64" style="edgeStyle=orthogonalEdgeStyle;rounded=0;orthogonalLoop=1;jettySize=auto;html=1;exitX=1;exitY=1;exitDx=0;exitDy=0;entryX=0.541;entryY=0.997;entryDx=0;entryDy=0;entryPerimeter=0;" edge="1" parent="1" target="VMQfCXlC5Lxj0V1GjXta-25">
          <mxGeometry relative="1" as="geometry">
            <mxPoint x="430" y="380" as="sourcePoint" />
          </mxGeometry>
        </mxCell>
        <mxCell id="VMQfCXlC5Lxj0V1GjXta-67" value="" style="image;html=1;image=img/lib/clip_art/computers/Printer_Commercial_128x128.png" vertex="1" parent="1">
          <mxGeometry x="40" y="420" width="80" height="80" as="geometry" />
        </mxCell>
        <mxCell id="VMQfCXlC5Lxj0V1GjXta-68" value="" style="image;html=1;image=img/lib/clip_art/computers/Printer_Commercial_128x128.png" vertex="1" parent="1">
          <mxGeometry x="129.5" y="320" width="80" height="80" as="geometry" />
        </mxCell>
        <mxCell id="VMQfCXlC5Lxj0V1GjXta-69" value="" style="image;html=1;image=img/lib/clip_art/computers/Printer_Commercial_128x128.png" vertex="1" parent="1">
          <mxGeometry x="40" y="240" width="80" height="80" as="geometry" />
        </mxCell>
        <mxCell id="VMQfCXlC5Lxj0V1GjXta-78" style="edgeStyle=orthogonalEdgeStyle;rounded=0;orthogonalLoop=1;jettySize=auto;html=1;exitX=0.75;exitY=1;exitDx=0;exitDy=0;entryX=0.257;entryY=0.997;entryDx=0;entryDy=0;entryPerimeter=0;" edge="1" parent="1" target="VMQfCXlC5Lxj0V1GjXta-44">
          <mxGeometry relative="1" as="geometry">
            <mxPoint x="564.4592000000002" y="945.2128" as="targetPoint" />
            <mxPoint x="435.79999999999995" y="403" as="sourcePoint" />
            <Array as="points">
              <mxPoint x="487" y="403" />
              <mxPoint x="487" y="952" />
              <mxPoint x="569" y="952" />
              <mxPoint x="569" y="932" />
            </Array>
          </mxGeometry>
        </mxCell>
        <mxCell id="VMQfCXlC5Lxj0V1GjXta-85" style="edgeStyle=orthogonalEdgeStyle;rounded=0;orthogonalLoop=1;jettySize=auto;html=1;exitX=1;exitY=1;exitDx=0;exitDy=0;entryX=0;entryY=0.5;entryDx=0;entryDy=0;" edge="1" parent="1" source="VMQfCXlC5Lxj0V1GjXta-70" target="VMQfCXlC5Lxj0V1GjXta-75">
          <mxGeometry relative="1" as="geometry" />
        </mxCell>
        <mxCell id="VMQfCXlC5Lxj0V1GjXta-100" style="edgeStyle=orthogonalEdgeStyle;rounded=0;orthogonalLoop=1;jettySize=auto;html=1;exitX=0;exitY=1;exitDx=0;exitDy=0;" edge="1" parent="1" source="VMQfCXlC5Lxj0V1GjXta-70" target="VMQfCXlC5Lxj0V1GjXta-98">
          <mxGeometry relative="1" as="geometry" />
        </mxCell>
        <mxCell id="VMQfCXlC5Lxj0V1GjXta-101" style="edgeStyle=orthogonalEdgeStyle;rounded=0;orthogonalLoop=1;jettySize=auto;html=1;exitX=0.5;exitY=1;exitDx=0;exitDy=0;entryX=1;entryY=0.5;entryDx=0;entryDy=0;" edge="1" parent="1" source="VMQfCXlC5Lxj0V1GjXta-70" target="VMQfCXlC5Lxj0V1GjXta-97">
          <mxGeometry relative="1" as="geometry" />
        </mxCell>
        <mxCell id="VMQfCXlC5Lxj0V1GjXta-102" style="edgeStyle=orthogonalEdgeStyle;rounded=0;orthogonalLoop=1;jettySize=auto;html=1;exitX=0;exitY=0.75;exitDx=0;exitDy=0;entryX=1;entryY=0.5;entryDx=0;entryDy=0;" edge="1" parent="1" source="VMQfCXlC5Lxj0V1GjXta-70" target="VMQfCXlC5Lxj0V1GjXta-99">
          <mxGeometry relative="1" as="geometry" />
        </mxCell>
        <mxCell id="VMQfCXlC5Lxj0V1GjXta-70" value="" style="image;html=1;image=img/lib/clip_art/networking/Switch_128x128.png" vertex="1" parent="1">
          <mxGeometry x="358.8" y="310" width="80" height="80" as="geometry" />
        </mxCell>
        <mxCell id="VMQfCXlC5Lxj0V1GjXta-73" value="" style="image;html=1;image=img/lib/clip_art/computers/Printer_Commercial_128x128.png" vertex="1" parent="1">
          <mxGeometry x="550" y="570" width="80" height="80" as="geometry" />
        </mxCell>
        <mxCell id="VMQfCXlC5Lxj0V1GjXta-74" value="" style="image;html=1;image=img/lib/clip_art/computers/Printer_Commercial_128x128.png" vertex="1" parent="1">
          <mxGeometry x="642.4" y="570" width="80" height="80" as="geometry" />
        </mxCell>
        <mxCell id="VMQfCXlC5Lxj0V1GjXta-76" style="edgeStyle=orthogonalEdgeStyle;rounded=0;orthogonalLoop=1;jettySize=auto;html=1;exitX=0;exitY=0.75;exitDx=0;exitDy=0;entryX=0.5;entryY=1;entryDx=0;entryDy=0;" edge="1" parent="1" source="VMQfCXlC5Lxj0V1GjXta-75" target="VMQfCXlC5Lxj0V1GjXta-74">
          <mxGeometry relative="1" as="geometry" />
        </mxCell>
        <mxCell id="VMQfCXlC5Lxj0V1GjXta-77" style="edgeStyle=orthogonalEdgeStyle;rounded=0;orthogonalLoop=1;jettySize=auto;html=1;exitX=0.25;exitY=1;exitDx=0;exitDy=0;entryX=0.5;entryY=1;entryDx=0;entryDy=0;" edge="1" parent="1" source="VMQfCXlC5Lxj0V1GjXta-75" target="VMQfCXlC5Lxj0V1GjXta-73">
          <mxGeometry relative="1" as="geometry" />
        </mxCell>
        <mxCell id="VMQfCXlC5Lxj0V1GjXta-75" value="" style="image;html=1;image=img/lib/clip_art/networking/Print_Server_128x128.png" vertex="1" parent="1">
          <mxGeometry x="762.4" y="520" width="80" height="80" as="geometry" />
        </mxCell>
        <mxCell id="VMQfCXlC5Lxj0V1GjXta-80" style="edgeStyle=orthogonalEdgeStyle;rounded=0;orthogonalLoop=1;jettySize=auto;html=1;exitX=0.5;exitY=1;exitDx=0;exitDy=0;entryX=0.55;entryY=0.997;entryDx=0;entryDy=0;entryPerimeter=0;" edge="1" parent="1" source="VMQfCXlC5Lxj0V1GjXta-70" target="VMQfCXlC5Lxj0V1GjXta-46">
          <mxGeometry relative="1" as="geometry" />
        </mxCell>
        <mxCell id="VMQfCXlC5Lxj0V1GjXta-81" style="edgeStyle=orthogonalEdgeStyle;rounded=0;orthogonalLoop=1;jettySize=auto;html=1;exitX=0.75;exitY=1;exitDx=0;exitDy=0;entryX=0.482;entryY=0.997;entryDx=0;entryDy=0;entryPerimeter=0;" edge="1" parent="1" source="VMQfCXlC5Lxj0V1GjXta-70" target="VMQfCXlC5Lxj0V1GjXta-47">
          <mxGeometry relative="1" as="geometry" />
        </mxCell>
        <mxCell id="VMQfCXlC5Lxj0V1GjXta-84" style="edgeStyle=orthogonalEdgeStyle;rounded=0;orthogonalLoop=1;jettySize=auto;html=1;exitX=0.25;exitY=1;exitDx=0;exitDy=0;entryX=0.139;entryY=0.997;entryDx=0;entryDy=0;entryPerimeter=0;" edge="1" parent="1" source="VMQfCXlC5Lxj0V1GjXta-70" target="VMQfCXlC5Lxj0V1GjXta-56">
          <mxGeometry relative="1" as="geometry" />
        </mxCell>
        <mxCell id="VMQfCXlC5Lxj0V1GjXta-86" value="" style="verticalLabelPosition=bottom;sketch=0;aspect=fixed;html=1;verticalAlign=top;strokeColor=none;align=center;outlineConnect=0;shape=mxgraph.citrix.file_server;" vertex="1" parent="1">
          <mxGeometry x="-10" y="640" width="71" height="97" as="geometry" />
        </mxCell>
        <mxCell id="VMQfCXlC5Lxj0V1GjXta-88" value="" style="image;points=[];aspect=fixed;html=1;align=center;shadow=0;dashed=0;image=img/lib/allied_telesis/computer_and_terminals/Personal_Computer_with_Server.svg;" vertex="1" parent="1">
          <mxGeometry x="213.29999999999998" y="674.6" width="62.400000000000006" height="62.400000000000006" as="geometry" />
        </mxCell>
        <mxCell id="VMQfCXlC5Lxj0V1GjXta-89" value="" style="image;points=[];aspect=fixed;html=1;align=center;shadow=0;dashed=0;image=img/lib/allied_telesis/computer_and_terminals/Personal_Computer_with_Server.svg;" vertex="1" parent="1">
          <mxGeometry x="117.59999999999995" y="674.6" width="62.400000000000006" height="62.400000000000006" as="geometry" />
        </mxCell>
        <mxCell id="VMQfCXlC5Lxj0V1GjXta-90" value="" style="image;points=[];aspect=fixed;html=1;align=center;shadow=0;dashed=0;image=img/lib/allied_telesis/computer_and_terminals/Personal_Computer_with_Server.svg;" vertex="1" parent="1">
          <mxGeometry x="209.5" y="585" width="70" height="70" as="geometry" />
        </mxCell>
        <mxCell id="VMQfCXlC5Lxj0V1GjXta-91" value="" style="image;points=[];aspect=fixed;html=1;align=center;shadow=0;dashed=0;image=img/lib/allied_telesis/computer_and_terminals/Personal_Computer_with_Server.svg;" vertex="1" parent="1">
          <mxGeometry x="117.6" y="578.8" width="62.400000000000006" height="62.400000000000006" as="geometry" />
        </mxCell>
        <mxCell id="VMQfCXlC5Lxj0V1GjXta-97" value="" style="image;html=1;image=img/lib/clip_art/computers/Laptop_128x128.png" vertex="1" parent="1">
          <mxGeometry x="199.5" y="890" width="80" height="80" as="geometry" />
        </mxCell>
        <mxCell id="VMQfCXlC5Lxj0V1GjXta-98" value="" style="image;html=1;image=img/lib/clip_art/computers/Laptop_128x128.png" vertex="1" parent="1">
          <mxGeometry x="260" y="790" width="80" height="80" as="geometry" />
        </mxCell>
        <mxCell id="VMQfCXlC5Lxj0V1GjXta-99" value="" style="image;html=1;image=img/lib/clip_art/computers/Laptop_128x128.png" vertex="1" parent="1">
          <mxGeometry x="140" y="790" width="80" height="80" as="geometry" />
        </mxCell>
        <mxCell id="VMQfCXlC5Lxj0V1GjXta-107" style="edgeStyle=orthogonalEdgeStyle;rounded=0;orthogonalLoop=1;jettySize=auto;html=1;exitX=1;exitY=0.5;exitDx=0;exitDy=0;entryX=0;entryY=0.5;entryDx=0;entryDy=0;" edge="1" parent="1" source="VMQfCXlC5Lxj0V1GjXta-105" target="VMQfCXlC5Lxj0V1GjXta-99">
          <mxGeometry relative="1" as="geometry" />
        </mxCell>
        <mxCell id="VMQfCXlC5Lxj0V1GjXta-105" value="" style="image;html=1;image=img/lib/clip_art/computers/Printer_128x128.png" vertex="1" parent="1">
          <mxGeometry x="-19" y="880" width="80" height="80" as="geometry" />
        </mxCell>
        <mxCell id="VMQfCXlC5Lxj0V1GjXta-111" value="" style="image;html=1;image=img/lib/clip_art/networking/Switch_128x128.png" vertex="1" parent="1">
          <mxGeometry x="-229.99999999999994" y="291.2" width="80" height="80" as="geometry" />
        </mxCell>
        <mxCell id="VMQfCXlC5Lxj0V1GjXta-112" value="" style="image;html=1;image=img/lib/clip_art/networking/Switch_128x128.png" vertex="1" parent="1">
          <mxGeometry x="-249.99999999999994" y="620" width="80" height="80" as="geometry" />
        </mxCell>
        <mxCell id="VMQfCXlC5Lxj0V1GjXta-113" style="edgeStyle=orthogonalEdgeStyle;rounded=0;orthogonalLoop=1;jettySize=auto;html=1;exitX=0.5;exitY=0;exitDx=0;exitDy=0;entryX=0.001;entryY=0.297;entryDx=0;entryDy=0;entryPerimeter=0;" edge="1" parent="1" source="VMQfCXlC5Lxj0V1GjXta-105" target="VMQfCXlC5Lxj0V1GjXta-91">
          <mxGeometry relative="1" as="geometry" />
        </mxCell>
        <mxCell id="VMQfCXlC5Lxj0V1GjXta-114" style="edgeStyle=orthogonalEdgeStyle;rounded=0;orthogonalLoop=1;jettySize=auto;html=1;exitX=0.75;exitY=0;exitDx=0;exitDy=0;entryX=0.517;entryY=-0.09;entryDx=0;entryDy=0;entryPerimeter=0;" edge="1" parent="1" source="VMQfCXlC5Lxj0V1GjXta-112" target="VMQfCXlC5Lxj0V1GjXta-90">
          <mxGeometry relative="1" as="geometry" />
        </mxCell>
      </root>
    </mxGraphModel>
  </diagram>
</mxfile>
